<?xml version="1.0" encoding="utf-8"?>
<svg width="800px" height="800px" viewBox="0 -3.5 1031 1031" fill="#000000" class="icon"  version="1.1" xmlns="http://www.w3.org/2000/svg"><path d="M164.912221 715.73652c6.70138 3.787737 13.985489 5.535923 21.269597 5.535923 15.296628 0 30.15621-8.158202 38.16873-22.435055l95.421824-171.030872 108.387537 26.80552c19.667093 4.807512 40.062598-4.370465 49.386257-22.435055l68.616304-133.444871 129.948499 16.025039a43.704652 43.704652 0 0 0 39.479869-16.170721l143.642623-180.354532 6.410016 29.864846c4.370465 20.541187 22.580737 34.526675 42.684877 34.526675 3.059326 0 6.118651-0.291364 9.177977-1.019775a43.617243 43.617243 0 0 0 33.5069-51.862854l-25.785745-120.187793-0.437046-1.31114c-0.437047-2.03955-1.165457-3.933419-1.893869-5.827287-0.291364-0.728411-0.582729-1.602504-1.019775-2.330915-0.291364-0.437047-0.437047-1.019775-0.582729-1.456821-0.728411-1.456822-1.602504-2.767961-2.476597-4.079101-0.291364-0.291364-0.437047-0.728411-0.582728-1.019775-1.456822-2.185233-3.205008-4.079101-4.953194-5.827287-0.437047-0.291364-0.728411-0.582729-1.165458-1.019776-1.456822-1.456822-3.205008-2.622279-4.807511-3.787736a9.80441 9.80441 0 0 0-1.602504-1.019775 40.499644 40.499644 0 0 0-6.118651-3.205008c-0.291364-0.145682-0.437047-0.291364-0.728411-0.291364-2.330915-0.874093-4.66183-1.602504-6.992745-2.039551l-2.622279-0.437046c-1.748186-0.291364-3.496372-0.437047-5.39024-0.437047h-3.642055l-119.459382 6.992744c-24.037559 1.456822-42.539195 22.14369-41.082373 46.18125 1.456822 24.037559 22.14369 42.102148 46.181249 41.082373l21.560962-1.31114-124.995305 156.754019-135.921469-16.75345c-18.210272-2.185233-35.837815 7.138427-44.287381 23.45483l-66.722435 129.802817-107.22208-26.514156a43.55897 43.55897 0 0 0-48.657846 21.123916l-111.738228 200.312989c-11.654574 20.832551-4.079101 47.492389 17.044815 59.146962zM87.409304 867.391663V43.704652c0-24.183241-19.521411-43.704652-43.704652-43.704652S0 19.521411 0 43.704652v867.391663c0 24.183241 19.521411 43.704652 43.704652 43.704652h404.705079a116.400057 116.400057 0 0 1 42.393513-82.164746c-1.893868-1.602504-3.642054-3.496372-5.535923-5.244558H87.409304zM813.052212 557.671362l-20.249822-16.170722a171.060009 171.060009 0 0 0-203.226632-8.595248l-49.386257 33.215536a43.646379 43.646379 0 0 0-11.945939 60.603784 43.777493 43.777493 0 0 0 60.603785 11.945938l49.386257-33.215535a84.000341 84.000341 0 0 1 99.792289 4.224783l20.249822 16.170721c31.030303 24.911652 69.344715 37.586001 107.659126 37.586001 34.089629 0 68.179257-10.05207 97.315693-30.15621l49.677621-34.235311c19.812776-13.694124 24.911652-40.936691 11.217527-60.749467a43.733789 43.733789 0 0 0-60.749466-11.217527l-49.677622 34.235311c-30.593257 20.978233-71.966994 19.521411-100.666382-3.642054zM963.396216 707.286954l-49.677622 34.235311a84.859866 84.859866 0 0 1-100.666382-3.642054l-20.249822-16.170722a171.060009 171.060009 0 0 0-203.226632-8.595248l-49.386257 33.215536a43.646379 43.646379 0 0 0-11.945939 60.603784 43.646379 43.646379 0 0 0 60.603785 11.945938l49.386257-33.215535a84.000341 84.000341 0 0 1 99.792289 4.224783l20.249822 16.170721c31.030303 24.911652 69.344715 37.586001 107.659126 37.586001 34.089629 0 68.179257-9.906388 97.315693-30.15621l49.677621-34.235311c19.812776-13.694124 24.911652-40.936691 11.217527-60.749467a43.864903 43.864903 0 0 0-60.749466-11.217527zM963.396216 887.641485l-49.677622 34.235311a84.859866 84.859866 0 0 1-100.666382-3.642054l-20.249822-16.170722a171.060009 171.060009 0 0 0-203.226632-8.595248l-49.386257 33.215536a43.646379 43.646379 0 0 0-11.945939 60.603784 43.777493 43.777493 0 0 0 60.603785 11.945938l49.386257-33.215535a84.000341 84.000341 0 0 1 99.792289 4.224783l20.249822 16.170721c31.030303 24.911652 69.344715 37.586001 107.659126 37.586001 34.089629 0 68.179257-9.906388 97.315693-30.15621l49.677621-34.235311c19.812776-13.694124 24.911652-40.936691 11.217527-60.749466a43.602675 43.602675 0 0 0-60.749466-11.217528z" /></svg>