<?xml version="1.0" encoding="iso-8859-1"?>
<!DOCTYPE svg PUBLIC "-//W3C//DTD SVG 1.1//EN" "http://www.w3.org/Graphics/SVG/1.1/DTD/svg11.dtd">
<svg version="1.1" id="Layer_1" xmlns="http://www.w3.org/2000/svg" xmlns:xlink="http://www.w3.org/1999/xlink" x="0px" y="0px"
	 viewBox="0 0 32 32" style="enable-background:new 0 0 32 32;" xml:space="preserve">
<path d="M27.539,21.461l-5.379-2.008c-0.986-0.368-1.864-1.489-2.096-2.575C21.838,15.357,23,12.877,23,10.072
	c0-4.618-3.14-8.375-7-8.375s-7,3.757-7,8.375c0,3.205,1.514,5.993,3.731,7.4c-0.37,0.851-1.092,1.619-1.893,1.893l-6.324,2.164
	C2.543,22.205,1,24.141,1,26.224C1,28.429,2.794,30,5,30h22c2.206,0,4-1.571,4-3.776C31,24.152,29.48,22.186,27.539,21.461z
	 M11,10.072c0-3.515,2.243-6.375,5-6.375s5,2.86,5,6.375s-2.243,6.375-5,6.375S11,13.587,11,10.072z M14.559,18.267
	c0.465,0.117,0.947,0.18,1.441,0.18c0.812,0,1.589-0.175,2.315-0.48c0.505,1.419,1.603,2.683,2.941,3.264
	c-1.481,0.76-3.291,1.217-5.255,1.217c-1.819,0-3.508-0.389-4.924-1.049l0.41-0.14C12.839,20.795,13.973,19.626,14.559,18.267z
	 M27,28H5c-1.103,0-2-0.673-2-1.776c0-1.217,1.01-2.519,2.162-2.914l3.435-1.12c1.956,1.362,4.549,2.229,7.403,2.229
	c2.943,0,5.616-0.873,7.591-2.311l3.249,1.22c1.151,0.43,2.16,1.664,2.16,2.892C29,27.323,28.103,28,27,28z"/>
</svg>